<mxfile host="app.diagrams.net" modified="2024-03-31T23:36:17.640Z" agent="Mozilla/5.0 (Windows NT 10.0; Win64; x64) AppleWebKit/537.36 (KHTML, like Gecko) Chrome/123.0.0.0 Safari/537.36" etag="Rv7CuUkx8xPh-nI9s1wh" version="24.2.1" type="device">
  <diagram name="Page-1" id="cehMRIM41BI3gV5GMjhs">
    <mxGraphModel dx="1554" dy="421" grid="1" gridSize="10" guides="1" tooltips="1" connect="1" arrows="1" fold="1" page="1" pageScale="1" pageWidth="850" pageHeight="1100" math="0" shadow="0">
      <root>
        <mxCell id="0" />
        <mxCell id="1" parent="0" />
        <mxCell id="s2LrYkPRTLf5qbK-lkEV-50" value="Security System Location" style="whiteSpace=wrap;html=1;fillColor=none;verticalAlign=top;fontStyle=1" vertex="1" parent="1">
          <mxGeometry x="-80" y="50" width="160" height="430" as="geometry" />
        </mxCell>
        <mxCell id="s2LrYkPRTLf5qbK-lkEV-8" value="Security System BE" style="whiteSpace=wrap;html=1;fillColor=none;verticalAlign=top;fontStyle=1" vertex="1" parent="1">
          <mxGeometry x="190" y="10" width="250" height="470" as="geometry" />
        </mxCell>
        <mxCell id="s2LrYkPRTLf5qbK-lkEV-3" value="Clients&amp;nbsp;&lt;div&gt;(Security personnel)&lt;/div&gt;" style="whiteSpace=wrap;html=1;fillColor=none;verticalAlign=top;fontStyle=1" vertex="1" parent="1">
          <mxGeometry x="480" y="160" width="200" height="320" as="geometry" />
        </mxCell>
        <mxCell id="s2LrYkPRTLf5qbK-lkEV-1" value="Database Server" style="verticalAlign=top;align=center;spacingTop=8;spacingLeft=2;spacingRight=12;shape=cube;size=10;direction=south;fontStyle=0;html=1;whiteSpace=wrap;" vertex="1" parent="1">
          <mxGeometry x="250" y="70" width="150" height="130" as="geometry" />
        </mxCell>
        <mxCell id="s2LrYkPRTLf5qbK-lkEV-2" value="MySQL" style="shape=module;align=left;spacingLeft=20;align=center;verticalAlign=middle;whiteSpace=wrap;html=1;" vertex="1" parent="1">
          <mxGeometry x="265" y="120" width="100" height="50" as="geometry" />
        </mxCell>
        <mxCell id="s2LrYkPRTLf5qbK-lkEV-5" value="Company issued&lt;div&gt;specialized smartphone&lt;/div&gt;" style="verticalAlign=top;align=center;spacingTop=8;spacingLeft=2;spacingRight=12;shape=cube;size=10;direction=south;fontStyle=0;html=1;whiteSpace=wrap;" vertex="1" parent="1">
          <mxGeometry x="495" y="250" width="170" height="210" as="geometry" />
        </mxCell>
        <mxCell id="s2LrYkPRTLf5qbK-lkEV-12" style="edgeStyle=orthogonalEdgeStyle;rounded=0;orthogonalLoop=1;jettySize=auto;html=1;entryX=0.5;entryY=0;entryDx=0;entryDy=0;endArrow=open;endFill=0;startArrow=open;startFill=0;" edge="1" parent="1" source="s2LrYkPRTLf5qbK-lkEV-7" target="s2LrYkPRTLf5qbK-lkEV-11">
          <mxGeometry relative="1" as="geometry" />
        </mxCell>
        <mxCell id="s2LrYkPRTLf5qbK-lkEV-7" value="Persistent background web services" style="shape=module;align=left;spacingLeft=20;align=center;verticalAlign=middle;whiteSpace=wrap;html=1;" vertex="1" parent="1">
          <mxGeometry x="510" y="310" width="130" height="50" as="geometry" />
        </mxCell>
        <mxCell id="s2LrYkPRTLf5qbK-lkEV-11" value="Factory installed company web app (Vue&amp;nbsp;&lt;b&gt;FE&lt;/b&gt;)" style="shape=module;align=left;spacingLeft=20;align=center;verticalAlign=middle;whiteSpace=wrap;html=1;" vertex="1" parent="1">
          <mxGeometry x="510" y="400" width="130" height="50" as="geometry" />
        </mxCell>
        <mxCell id="s2LrYkPRTLf5qbK-lkEV-15" value="Node.js web server" style="verticalAlign=top;align=center;spacingTop=8;spacingLeft=2;spacingRight=12;shape=cube;size=10;direction=south;fontStyle=0;html=1;whiteSpace=wrap;" vertex="1" parent="1">
          <mxGeometry x="250" y="270" width="150" height="130" as="geometry" />
        </mxCell>
        <mxCell id="s2LrYkPRTLf5qbK-lkEV-16" value="Express.js" style="shape=module;align=left;spacingLeft=20;align=center;verticalAlign=middle;whiteSpace=wrap;html=1;" vertex="1" parent="1">
          <mxGeometry x="265" y="320" width="100" height="50" as="geometry" />
        </mxCell>
        <mxCell id="s2LrYkPRTLf5qbK-lkEV-17" style="edgeStyle=orthogonalEdgeStyle;rounded=0;orthogonalLoop=1;jettySize=auto;html=1;exitX=1;exitY=0.5;exitDx=0;exitDy=0;entryX=0;entryY=0;entryDx=0;entryDy=35;entryPerimeter=0;endArrow=open;endFill=0;startArrow=open;startFill=0;dashed=1;" edge="1" parent="1" source="s2LrYkPRTLf5qbK-lkEV-16" target="s2LrYkPRTLf5qbK-lkEV-7">
          <mxGeometry relative="1" as="geometry" />
        </mxCell>
        <mxCell id="s2LrYkPRTLf5qbK-lkEV-19" style="rounded=0;orthogonalLoop=1;jettySize=auto;html=1;exitX=0.378;exitY=0.002;exitDx=0;exitDy=0;exitPerimeter=0;entryX=0.401;entryY=1.004;entryDx=0;entryDy=0;entryPerimeter=0;endArrow=none;endFill=0;" edge="1" parent="1" source="s2LrYkPRTLf5qbK-lkEV-15">
          <mxGeometry relative="1" as="geometry">
            <mxPoint x="400" y="320.79" as="sourcePoint" />
            <mxPoint x="494.31999999999994" y="320.00000000000006" as="targetPoint" />
          </mxGeometry>
        </mxCell>
        <mxCell id="s2LrYkPRTLf5qbK-lkEV-20" value="&amp;nbsp;TCP/IP&amp;nbsp;" style="edgeLabel;html=1;align=center;verticalAlign=middle;resizable=0;points=[];labelBorderColor=none;rotation=0;labelBackgroundColor=none;" vertex="1" connectable="0" parent="s2LrYkPRTLf5qbK-lkEV-19">
          <mxGeometry x="0.0154" y="2" relative="1" as="geometry">
            <mxPoint x="12" y="-8" as="offset" />
          </mxGeometry>
        </mxCell>
        <mxCell id="s2LrYkPRTLf5qbK-lkEV-24" style="edgeStyle=orthogonalEdgeStyle;rounded=0;orthogonalLoop=1;jettySize=auto;html=1;exitX=0.004;exitY=0.273;exitDx=0;exitDy=0;exitPerimeter=0;entryX=1.003;entryY=0.27;entryDx=0;entryDy=0;entryPerimeter=0;endArrow=none;endFill=0;" edge="1" parent="1" source="s2LrYkPRTLf5qbK-lkEV-15" target="s2LrYkPRTLf5qbK-lkEV-1">
          <mxGeometry relative="1" as="geometry" />
        </mxCell>
        <mxCell id="s2LrYkPRTLf5qbK-lkEV-25" value="TCP/IP" style="edgeLabel;html=1;align=center;verticalAlign=middle;resizable=0;points=[];labelBorderColor=none;rotation=-90;labelBackgroundColor=none;" vertex="1" connectable="0" parent="s2LrYkPRTLf5qbK-lkEV-24">
          <mxGeometry x="0.1566" y="1" relative="1" as="geometry">
            <mxPoint x="-9" y="10" as="offset" />
          </mxGeometry>
        </mxCell>
        <mxCell id="s2LrYkPRTLf5qbK-lkEV-27" style="edgeStyle=orthogonalEdgeStyle;rounded=0;orthogonalLoop=1;jettySize=auto;html=1;exitX=0;exitY=0;exitDx=0;exitDy=15;exitPerimeter=0;entryX=0;entryY=0;entryDx=0;entryDy=35;entryPerimeter=0;endArrow=open;endFill=0;startArrow=open;startFill=0;dashed=1;" edge="1" parent="1" source="s2LrYkPRTLf5qbK-lkEV-16" target="s2LrYkPRTLf5qbK-lkEV-2">
          <mxGeometry relative="1" as="geometry">
            <Array as="points">
              <mxPoint x="240" y="335" />
              <mxPoint x="240" y="155" />
            </Array>
          </mxGeometry>
        </mxCell>
        <mxCell id="s2LrYkPRTLf5qbK-lkEV-28" value="&amp;nbsp;Sequelize ORM&amp;nbsp;" style="edgeLabel;html=1;align=center;verticalAlign=middle;resizable=0;points=[];labelBorderColor=none;labelBackgroundColor=none;rotation=-90;" vertex="1" connectable="0" parent="s2LrYkPRTLf5qbK-lkEV-27">
          <mxGeometry x="0.1011" y="1" relative="1" as="geometry">
            <mxPoint x="-9" y="7" as="offset" />
          </mxGeometry>
        </mxCell>
        <mxCell id="s2LrYkPRTLf5qbK-lkEV-30" value="Electronic Lock" style="verticalAlign=top;align=center;spacingTop=8;spacingLeft=2;spacingRight=12;shape=cube;size=10;direction=south;fontStyle=0;html=1;whiteSpace=wrap;" vertex="1" parent="1">
          <mxGeometry x="-60" y="120" width="120" height="40" as="geometry" />
        </mxCell>
        <mxCell id="s2LrYkPRTLf5qbK-lkEV-31" value="NVR" style="verticalAlign=top;align=center;spacingTop=8;spacingLeft=2;spacingRight=12;shape=cube;size=10;direction=south;fontStyle=0;html=1;whiteSpace=wrap;" vertex="1" parent="1">
          <mxGeometry x="-60" y="180" width="120" height="40" as="geometry" />
        </mxCell>
        <mxCell id="s2LrYkPRTLf5qbK-lkEV-32" value="Camera" style="verticalAlign=top;align=center;spacingTop=8;spacingLeft=2;spacingRight=12;shape=cube;size=10;direction=south;fontStyle=0;html=1;whiteSpace=wrap;" vertex="1" parent="1">
          <mxGeometry x="-60" y="240" width="120" height="40" as="geometry" />
        </mxCell>
        <mxCell id="s2LrYkPRTLf5qbK-lkEV-33" value="Smoke sensor" style="verticalAlign=top;align=center;spacingTop=8;spacingLeft=2;spacingRight=12;shape=cube;size=10;direction=south;fontStyle=0;html=1;whiteSpace=wrap;" vertex="1" parent="1">
          <mxGeometry x="-60" y="300" width="120" height="40" as="geometry" />
        </mxCell>
        <mxCell id="s2LrYkPRTLf5qbK-lkEV-34" value="Motion sensor" style="verticalAlign=top;align=center;spacingTop=8;spacingLeft=2;spacingRight=12;shape=cube;size=10;direction=south;fontStyle=0;html=1;whiteSpace=wrap;" vertex="1" parent="1">
          <mxGeometry x="-60" y="360" width="120" height="40" as="geometry" />
        </mxCell>
        <mxCell id="s2LrYkPRTLf5qbK-lkEV-35" value="UPS" style="verticalAlign=top;align=center;spacingTop=8;spacingLeft=2;spacingRight=12;shape=cube;size=10;direction=south;fontStyle=0;html=1;whiteSpace=wrap;" vertex="1" parent="1">
          <mxGeometry x="-60" y="420" width="120" height="40" as="geometry" />
        </mxCell>
        <mxCell id="s2LrYkPRTLf5qbK-lkEV-36" style="edgeStyle=orthogonalEdgeStyle;rounded=0;orthogonalLoop=1;jettySize=auto;html=1;entryX=0.947;entryY=0.999;entryDx=0;entryDy=0;entryPerimeter=0;endArrow=none;endFill=0;exitX=0;exitY=0;exitDx=15;exitDy=0;exitPerimeter=0;" edge="1" parent="1" source="s2LrYkPRTLf5qbK-lkEV-35" target="s2LrYkPRTLf5qbK-lkEV-15">
          <mxGeometry relative="1" as="geometry">
            <Array as="points">
              <mxPoint x="70" y="435" />
              <mxPoint x="70" y="393" />
            </Array>
          </mxGeometry>
        </mxCell>
        <mxCell id="s2LrYkPRTLf5qbK-lkEV-39" style="edgeStyle=orthogonalEdgeStyle;rounded=0;orthogonalLoop=1;jettySize=auto;html=1;entryX=0.912;entryY=0.998;entryDx=0;entryDy=0;entryPerimeter=0;endArrow=none;endFill=0;exitX=0;exitY=0;exitDx=15;exitDy=0;exitPerimeter=0;" edge="1" parent="1" source="s2LrYkPRTLf5qbK-lkEV-34" target="s2LrYkPRTLf5qbK-lkEV-15">
          <mxGeometry relative="1" as="geometry">
            <Array as="points">
              <mxPoint x="70" y="375" />
              <mxPoint x="70" y="389" />
            </Array>
          </mxGeometry>
        </mxCell>
        <mxCell id="s2LrYkPRTLf5qbK-lkEV-40" style="edgeStyle=orthogonalEdgeStyle;rounded=0;orthogonalLoop=1;jettySize=auto;html=1;entryX=0.879;entryY=1.001;entryDx=0;entryDy=0;entryPerimeter=0;endArrow=none;endFill=0;exitX=0;exitY=0;exitDx=15;exitDy=0;exitPerimeter=0;" edge="1" parent="1" source="s2LrYkPRTLf5qbK-lkEV-33" target="s2LrYkPRTLf5qbK-lkEV-15">
          <mxGeometry relative="1" as="geometry">
            <Array as="points">
              <mxPoint x="90" y="315" />
              <mxPoint x="90" y="384" />
            </Array>
          </mxGeometry>
        </mxCell>
        <mxCell id="s2LrYkPRTLf5qbK-lkEV-41" style="edgeStyle=orthogonalEdgeStyle;rounded=0;orthogonalLoop=1;jettySize=auto;html=1;entryX=0.843;entryY=1.001;entryDx=0;entryDy=0;entryPerimeter=0;endArrow=none;endFill=0;exitX=0;exitY=0;exitDx=15;exitDy=0;exitPerimeter=0;" edge="1" parent="1" source="s2LrYkPRTLf5qbK-lkEV-32" target="s2LrYkPRTLf5qbK-lkEV-15">
          <mxGeometry relative="1" as="geometry">
            <Array as="points">
              <mxPoint x="100" y="255" />
              <mxPoint x="100" y="380" />
            </Array>
          </mxGeometry>
        </mxCell>
        <mxCell id="s2LrYkPRTLf5qbK-lkEV-44" style="edgeStyle=orthogonalEdgeStyle;rounded=0;orthogonalLoop=1;jettySize=auto;html=1;entryX=0.807;entryY=0.999;entryDx=0;entryDy=0;entryPerimeter=0;endArrow=none;endFill=0;exitX=0;exitY=0;exitDx=15;exitDy=0;exitPerimeter=0;" edge="1" parent="1" source="s2LrYkPRTLf5qbK-lkEV-31" target="s2LrYkPRTLf5qbK-lkEV-15">
          <mxGeometry relative="1" as="geometry">
            <Array as="points">
              <mxPoint x="110" y="195" />
              <mxPoint x="110" y="375" />
            </Array>
          </mxGeometry>
        </mxCell>
        <mxCell id="s2LrYkPRTLf5qbK-lkEV-45" style="edgeStyle=orthogonalEdgeStyle;rounded=0;orthogonalLoop=1;jettySize=auto;html=1;entryX=0.77;entryY=0.999;entryDx=0;entryDy=0;entryPerimeter=0;endArrow=none;endFill=0;exitX=0;exitY=0;exitDx=15;exitDy=0;exitPerimeter=0;" edge="1" parent="1" source="s2LrYkPRTLf5qbK-lkEV-30" target="s2LrYkPRTLf5qbK-lkEV-15">
          <mxGeometry relative="1" as="geometry">
            <Array as="points">
              <mxPoint x="120" y="135" />
              <mxPoint x="120" y="370" />
            </Array>
          </mxGeometry>
        </mxCell>
        <mxCell id="s2LrYkPRTLf5qbK-lkEV-46" value="&amp;nbsp;TCP/IP&amp;nbsp;" style="edgeLabel;html=1;align=center;verticalAlign=middle;resizable=0;points=[];labelBorderColor=none;rotation=0;" vertex="1" connectable="0" parent="s2LrYkPRTLf5qbK-lkEV-45">
          <mxGeometry x="0.6246" relative="1" as="geometry">
            <mxPoint x="-25" y="-10" as="offset" />
          </mxGeometry>
        </mxCell>
        <mxCell id="s2LrYkPRTLf5qbK-lkEV-47" style="edgeStyle=orthogonalEdgeStyle;rounded=0;orthogonalLoop=1;jettySize=auto;html=1;exitX=0;exitY=0;exitDx=0;exitDy=15;exitPerimeter=0;entryX=1;entryY=0.75;entryDx=0;entryDy=0;endArrow=open;endFill=0;startArrow=open;startFill=0;dashed=1;" edge="1" parent="1" source="s2LrYkPRTLf5qbK-lkEV-11" target="s2LrYkPRTLf5qbK-lkEV-16">
          <mxGeometry relative="1" as="geometry">
            <Array as="points">
              <mxPoint x="460" y="415" />
              <mxPoint x="460" y="358" />
            </Array>
          </mxGeometry>
        </mxCell>
        <mxCell id="s2LrYkPRTLf5qbK-lkEV-51" value="Security System Perimeter" style="whiteSpace=wrap;html=1;fillColor=none;verticalAlign=top;fontStyle=1" vertex="1" parent="1">
          <mxGeometry x="-80" y="500" width="370" height="130" as="geometry" />
        </mxCell>
        <mxCell id="s2LrYkPRTLf5qbK-lkEV-52" value="Wi-Fi router" style="verticalAlign=top;align=center;spacingTop=8;spacingLeft=2;spacingRight=12;shape=cube;size=10;direction=south;fontStyle=0;html=1;whiteSpace=wrap;" vertex="1" parent="1">
          <mxGeometry x="145" y="570" width="120" height="40" as="geometry" />
        </mxCell>
        <mxCell id="s2LrYkPRTLf5qbK-lkEV-53" value="Internet modem" style="verticalAlign=top;align=center;spacingTop=8;spacingLeft=2;spacingRight=12;shape=cube;size=10;direction=south;fontStyle=0;html=1;whiteSpace=wrap;" vertex="1" parent="1">
          <mxGeometry x="-60" y="570" width="120" height="40" as="geometry" />
        </mxCell>
        <mxCell id="s2LrYkPRTLf5qbK-lkEV-54" style="rounded=0;orthogonalLoop=1;jettySize=auto;html=1;entryX=0;entryY=0;entryDx=25;entryDy=120;entryPerimeter=0;endArrow=none;endFill=0;" edge="1" parent="1" target="s2LrYkPRTLf5qbK-lkEV-52">
          <mxGeometry relative="1" as="geometry">
            <mxPoint x="60" y="595" as="sourcePoint" />
          </mxGeometry>
        </mxCell>
        <mxCell id="s2LrYkPRTLf5qbK-lkEV-55" value="Ethernet" style="edgeLabel;html=1;align=center;verticalAlign=middle;resizable=0;points=[];labelBackgroundColor=none;" vertex="1" connectable="0" parent="s2LrYkPRTLf5qbK-lkEV-54">
          <mxGeometry x="-0.2479" relative="1" as="geometry">
            <mxPoint x="8" y="-5" as="offset" />
          </mxGeometry>
        </mxCell>
        <mxCell id="s2LrYkPRTLf5qbK-lkEV-56" style="edgeStyle=orthogonalEdgeStyle;rounded=0;orthogonalLoop=1;jettySize=auto;html=1;entryX=-0.001;entryY=0.653;entryDx=0;entryDy=0;entryPerimeter=0;endArrow=classic;endFill=1;" edge="1" parent="1" source="s2LrYkPRTLf5qbK-lkEV-35" target="s2LrYkPRTLf5qbK-lkEV-51">
          <mxGeometry relative="1" as="geometry">
            <Array as="points">
              <mxPoint x="-100" y="450" />
              <mxPoint x="-100" y="585" />
            </Array>
          </mxGeometry>
        </mxCell>
        <mxCell id="s2LrYkPRTLf5qbK-lkEV-64" value="Power cable" style="edgeLabel;html=1;align=center;verticalAlign=middle;resizable=0;points=[];labelBackgroundColor=none;rotation=-90;" vertex="1" connectable="0" parent="s2LrYkPRTLf5qbK-lkEV-56">
          <mxGeometry x="0.1292" y="-1" relative="1" as="geometry">
            <mxPoint x="-9" as="offset" />
          </mxGeometry>
        </mxCell>
        <mxCell id="s2LrYkPRTLf5qbK-lkEV-61" style="edgeStyle=orthogonalEdgeStyle;rounded=0;orthogonalLoop=1;jettySize=auto;html=1;entryX=-0.001;entryY=0.07;entryDx=0;entryDy=0;entryPerimeter=0;endArrow=classic;endFill=1;" edge="1" parent="1" source="s2LrYkPRTLf5qbK-lkEV-35" target="s2LrYkPRTLf5qbK-lkEV-50">
          <mxGeometry relative="1" as="geometry">
            <Array as="points">
              <mxPoint x="-100" y="440" />
              <mxPoint x="-100" y="80" />
            </Array>
          </mxGeometry>
        </mxCell>
        <mxCell id="s2LrYkPRTLf5qbK-lkEV-65" value="Power cable" style="edgeLabel;html=1;align=center;verticalAlign=middle;resizable=0;points=[];labelBackgroundColor=none;rotation=-90;" vertex="1" connectable="0" parent="s2LrYkPRTLf5qbK-lkEV-61">
          <mxGeometry x="0.0227" relative="1" as="geometry">
            <mxPoint x="-10" as="offset" />
          </mxGeometry>
        </mxCell>
        <mxCell id="s2LrYkPRTLf5qbK-lkEV-62" style="edgeStyle=orthogonalEdgeStyle;rounded=0;orthogonalLoop=1;jettySize=auto;html=1;entryX=0;entryY=0.915;entryDx=0;entryDy=0;entryPerimeter=0;endArrow=classic;endFill=1;" edge="1" parent="1" source="s2LrYkPRTLf5qbK-lkEV-35" target="s2LrYkPRTLf5qbK-lkEV-8">
          <mxGeometry relative="1" as="geometry" />
        </mxCell>
        <mxCell id="s2LrYkPRTLf5qbK-lkEV-63" value="Power cable" style="edgeLabel;html=1;align=center;verticalAlign=middle;resizable=0;points=[];labelBackgroundColor=none;" vertex="1" connectable="0" parent="s2LrYkPRTLf5qbK-lkEV-62">
          <mxGeometry x="-0.0476" relative="1" as="geometry">
            <mxPoint x="23" y="-10" as="offset" />
          </mxGeometry>
        </mxCell>
      </root>
    </mxGraphModel>
  </diagram>
</mxfile>
